HIERARCHY
ROOT Hips
{
    OFFSET   0.000000   0.000000   0.000000
    CHANNELS 6 Xposition Yposition Zposition Zrotation Xrotation Yrotation
    JOINT Chest
    {
        OFFSET   0.000000   8.007240   0.000000
        CHANNELS 3 Zrotation Xrotation Yrotation
        JOINT Chest2
        {
            OFFSET   0.000000  22.077100   0.000000
            CHANNELS 3 Zrotation Xrotation Yrotation
            JOINT Neck
            {
                OFFSET   0.000000  23.254800   0.000000
                CHANNELS 3 Zrotation Xrotation Yrotation
                JOINT Head
                {
                    OFFSET   0.000000  14.370000   1.956600
                    CHANNELS 3 Zrotation Xrotation Yrotation
                    End Site
                    {
                        OFFSET   0.000000  19.566000   0.000000
                    }
                }
            }
            JOINT LeftCollar
            {
                OFFSET   3.911900  19.017000  -0.467064
                CHANNELS 3 Zrotation Xrotation Yrotation
                JOINT LeftShoulder
                {
                    OFFSET  10.383700   0.000000   0.000000
                    CHANNELS 3 Zrotation Xrotation Yrotation
                    JOINT LeftElbow
                    {
                        OFFSET  26.662100   0.001476   0.000517
                        CHANNELS 3 Zrotation Xrotation Yrotation
                        JOINT LeftWrist
                        {
                            OFFSET  28.869000  -0.000025  -0.000106
                            CHANNELS 3 Zrotation Xrotation Yrotation
                            JOINT LeftFinger0
                            {
                                OFFSET   2.044660  -2.323460   3.252850
                                CHANNELS 3 Zrotation Xrotation Yrotation
                                JOINT LeftFinger01
                                {
                                    OFFSET   3.088130   0.000000   0.000000
                                    CHANNELS 3 Zrotation Xrotation Yrotation
                                    JOINT LeftFinger02
                                    {
                                        OFFSET   2.639460   0.000000   0.000000
                                        CHANNELS 3 Zrotation Xrotation Yrotation
                                        End Site
                                        {
                                            OFFSET   2.582190   0.000000   0.000000
                                        }
                                    }
                                }
                            }
                            JOINT LeftFinger1
                            {
                                OFFSET   8.364480   0.000000   3.252850
                                CHANNELS 3 Zrotation Xrotation Yrotation
                                JOINT LeftFinger11
                                {
                                    OFFSET   4.646930   0.000000   0.000000
                                    CHANNELS 3 Zrotation Xrotation Yrotation
                                    JOINT LeftFinger12
                                    {
                                        OFFSET   2.323460   0.000000   0.000000
                                        CHANNELS 3 Zrotation Xrotation Yrotation
                                        End Site
                                        {
                                            OFFSET   2.273050   0.000000   0.000000
                                        }
                                    }
                                }
                            }
                            JOINT LeftFinger2
                            {
                                OFFSET   8.364490   0.000015   1.078090
                                CHANNELS 3 Zrotation Xrotation Yrotation
                                JOINT LeftFinger21
                                {
                                    OFFSET   5.111620   0.000000   0.000000
                                    CHANNELS 3 Zrotation Xrotation Yrotation
                                    JOINT LeftFinger22
                                    {
                                        OFFSET   2.788160   0.000016   0.000000
                                        CHANNELS 3 Zrotation Xrotation Yrotation
                                        End Site
                                        {
                                            OFFSET   2.727660   0.000000   0.000000
                                        }
                                    }
                                }
                            }
                            JOINT LeftFinger3
                            {
                                OFFSET   7.899780   0.000017  -1.078090
                                CHANNELS 3 Zrotation Xrotation Yrotation
                                JOINT LeftFinger31
                                {
                                    OFFSET   4.646930   0.000000   0.000000
                                    CHANNELS 3 Zrotation Xrotation Yrotation
                                    JOINT LeftFinger32
                                    {
                                        OFFSET   2.323470   0.000000   0.000000
                                        CHANNELS 3 Zrotation Xrotation Yrotation
                                        End Site
                                        {
                                            OFFSET   2.273050   0.000000   0.000000
                                        }
                                    }
                                }
                            }
                            JOINT LeftFinger4
                            {
                                OFFSET   7.435090   0.000000  -3.252850
                                CHANNELS 3 Zrotation Xrotation Yrotation
                                JOINT LeftFinger41
                                {
                                    OFFSET   3.717550   0.000000   0.000000
                                    CHANNELS 3 Zrotation Xrotation Yrotation
                                    JOINT LeftFinger42
                                    {
                                        OFFSET   1.858770   0.000000   0.000000
                                        CHANNELS 3 Zrotation Xrotation Yrotation
                                        End Site
                                        {
                                            OFFSET   1.818440   0.000000   0.000000
                                        }
                                    }
                                }
                            }
                        }
                    }
                }
            }
            JOINT RightCollar
            {
                OFFSET  -3.911900  19.017000  -0.467063
                CHANNELS 3 Zrotation Xrotation Yrotation
                JOINT RightShoulder
                {
                    OFFSET -10.383700   0.000019   0.000000
                    CHANNELS 3 Zrotation Xrotation Yrotation
                    JOINT RightElbow
                    {
                        OFFSET -26.662100   0.001175   0.000102
                        CHANNELS 3 Zrotation Xrotation Yrotation
                        JOINT RightWrist
                        {
                            OFFSET -28.869000   0.000016  -0.000079
                            CHANNELS 3 Zrotation Xrotation Yrotation
                            JOINT RightFinger0
                            {
                                OFFSET  -2.044660  -2.323490   3.252850
                                CHANNELS 3 Zrotation Xrotation Yrotation
                                JOINT RightFinger01
                                {
                                    OFFSET  -3.088140   0.000000   0.000000
                                    CHANNELS 3 Zrotation Xrotation Yrotation
                                    JOINT RightFinger02
                                    {
                                        OFFSET  -2.639460   0.000000   0.000000
                                        CHANNELS 3 Zrotation Xrotation Yrotation
                                        End Site
                                        {
                                            OFFSET  -2.582190   0.000000   0.000000
                                        }
                                    }
                                }
                            }
                            JOINT RightFinger1
                            {
                                OFFSET  -8.364480   0.000000   3.252850
                                CHANNELS 3 Zrotation Xrotation Yrotation
                                JOINT RightFinger11
                                {
                                    OFFSET  -4.646930   0.000000   0.000000
                                    CHANNELS 3 Zrotation Xrotation Yrotation
                                    JOINT RightFinger12
                                    {
                                        OFFSET  -2.323470   0.000000   0.000000
                                        CHANNELS 3 Zrotation Xrotation Yrotation
                                        End Site
                                        {
                                            OFFSET  -2.273050   0.000000   0.000000
                                        }
                                    }
                                }
                            }
                            JOINT RightFinger2
                            {
                                OFFSET  -8.364480   0.000000   1.078090
                                CHANNELS 3 Zrotation Xrotation Yrotation
                                JOINT RightFinger21
                                {
                                    OFFSET  -5.111620   0.000000   0.000000
                                    CHANNELS 3 Zrotation Xrotation Yrotation
                                    JOINT RightFinger22
                                    {
                                        OFFSET  -2.788160   0.000000   0.000000
                                        CHANNELS 3 Zrotation Xrotation Yrotation
                                        End Site
                                        {
                                            OFFSET  -2.727660   0.000000   0.000000
                                        }
                                    }
                                }
                            }
                            JOINT RightFinger3
                            {
                                OFFSET  -7.899780   0.000000  -1.078090
                                CHANNELS 3 Zrotation Xrotation Yrotation
                                JOINT RightFinger31
                                {
                                    OFFSET  -4.646930   0.000000   0.000000
                                    CHANNELS 3 Zrotation Xrotation Yrotation
                                    JOINT RightFinger32
                                    {
                                        OFFSET  -2.323470   0.000000   0.000000
                                        CHANNELS 3 Zrotation Xrotation Yrotation
                                        End Site
                                        {
                                            OFFSET  -2.273050   0.000000   0.000000
                                        }
                                    }
                                }
                            }
                            JOINT RightFinger4
                            {
                                OFFSET  -7.435090   0.000000  -3.252850
                                CHANNELS 3 Zrotation Xrotation Yrotation
                                JOINT RightFinger41
                                {
                                    OFFSET  -3.717550   0.000000   0.000000
                                    CHANNELS 3 Zrotation Xrotation Yrotation
                                    JOINT RightFinger42
                                    {
                                        OFFSET  -1.858770   0.000000   0.000000
                                        CHANNELS 3 Zrotation Xrotation Yrotation
                                        End Site
                                        {
                                            OFFSET  -1.818440   0.000000   0.000000
                                        }
                                    }
                                }
                            }
                        }
                    }
                }
            }
        }
    }
    JOINT LeftHip
    {
        OFFSET   9.783040   0.000000   0.000000
        CHANNELS 3 Zrotation Xrotation Yrotation
        JOINT LeftKnee
        {
            OFFSET   0.000032 -41.789100  -0.002222
            CHANNELS 3 Zrotation Xrotation Yrotation
            JOINT LeftAnkle
            {
                OFFSET   0.000087 -41.133200  -0.000135
                CHANNELS 3 Zrotation Xrotation Yrotation
                JOINT LeftToe
                {
                    OFFSET   0.000000  -6.358960  14.674500
                    CHANNELS 3 Zrotation Xrotation Yrotation
                    End Site
                    {
                        OFFSET   0.000000   0.000000   3.913200
                    }
                }
            }
        }
    }
    JOINT RightHip
    {
        OFFSET  -9.783040   0.000000   0.000000
        CHANNELS 3 Zrotation Xrotation Yrotation
        JOINT RightKnee
        {
            OFFSET   0.000047 -41.789100  -0.000896
            CHANNELS 3 Zrotation Xrotation Yrotation
            JOINT RightAnkle
            {
                OFFSET  -0.000117 -41.133300  -0.000248
                CHANNELS 3 Zrotation Xrotation Yrotation
                JOINT RightToe
                {
                    OFFSET   0.000000  -6.358970  14.674500
                    CHANNELS 3 Zrotation Xrotation Yrotation
                    End Site
                    {
                        OFFSET   0.000000   0.000000   3.913200
                    }
                }
            }
        }
    }
}
MOTION
Frames: 5
Frame Time:   0.016667
  1.553590  89.596800  -0.692081  -1.767320  -5.518060  -0.434365   1.232620   3.698230  -1.226240   2.552420   7.368290  -2.540020  -0.164578  -0.171785  -0.009245  -0.269677  -0.352137   8.446030  -8.120820   3.555420   1.349430 -67.970600   7.232920  -6.661310  -2.644050  -2.702270 -12.818900   4.540470   2.210400   6.098190  41.670000  31.366600 -60.245600 -26.619900   0.002196   0.001143  -8.309940  -0.001392   0.013288 -31.783200   3.407080  -5.479930 -26.133100   0.003957   0.003591 -18.293200   0.003438   0.002557 -28.303200  -0.036294   0.067419 -34.299100   0.001731   0.006885 -22.843200   0.002936   0.005082 -28.070700  -2.652620   4.959300 -33.318600  -0.001042   0.007389 -22.187000  -0.001005   0.005129 -29.017700  -2.805410   5.044750 -43.712100  -0.001036   0.000992 -29.112200   0.003145  -0.010373   6.157920   0.249434   8.059520  75.521600   4.334320   3.633520  -1.394310 -10.015500  11.742100 -12.646900  -7.012110   3.148050 -39.524800  36.108300  68.897300  32.791900   0.009660  -0.006168  11.396000  -0.000598   0.000628  32.139300   5.720740   9.015490  26.665100   0.000147  -0.001303  18.665600  -0.003670  -0.002340  28.312400   3.550600   6.558750  36.290400  -0.000870  -0.000929  24.169400  -0.000404   0.003383  28.584200   2.015660   3.693510  38.141700  -0.002783  -0.002198  25.402400  -0.011987   0.000702  35.410400   0.151967   0.200149  53.115900  -0.006361  -0.000865  35.375200  -0.009195  -0.005651   2.111430   7.990830   1.983600   1.182350   0.101707   3.087260  -3.778640  -2.900340   0.700062  -0.000000   0.000000  -0.000000  -0.014775   5.110010  -4.540740   0.502751   2.820680  -5.757110  -2.007240  -2.493080  -5.388590  -0.000000   0.000000   0.000000
  1.553610  89.596800  -0.683700  -1.767170  -5.518060  -0.434365   1.229250   3.697990  -1.221930   2.545400   7.368040  -2.531140  -0.164387  -0.171731  -0.009239  -0.269306  -0.352106   8.455670  -8.123520   3.542800   1.346770 -68.032300   7.247990  -6.639010  -2.662100  -2.747540 -12.811500   4.514400   2.210650   6.067100  41.692800  31.397200 -60.312300 -26.601200   0.002198   0.001125  -8.300370  -0.001385   0.013288 -31.780400   3.425520  -5.510090 -26.133700   0.003957   0.003593 -18.293600   0.003441   0.002560 -28.303300  -0.023879   0.044346 -34.292000   0.001732   0.006885 -22.838500   0.002937   0.005084 -28.072100  -2.644860   4.944870 -33.313200  -0.001039   0.007392 -22.187300  -0.001004   0.005134 -29.016700  -2.805650   5.044910 -43.710500  -0.001037   0.000994 -29.111100   0.003144  -0.010375   6.159490   0.237145   8.059510  75.509600   4.334350   3.623390  -1.382100 -10.022500  11.712300 -12.640100  -6.993580   3.159430 -39.528400  36.109500  68.899400  32.782900   0.009660  -0.006153  11.391800  -0.000591   0.000632  32.124900   5.730730   9.035530  26.654800   0.000143  -0.001303  18.658000  -0.003672  -0.002338  28.309900   3.561340   6.579080  36.274100  -0.000870  -0.000928  24.158600  -0.000396   0.003386  28.582600   2.028540   3.717360  38.121200  -0.002786  -0.002194  25.388700  -0.011989   0.000704  35.399200   0.151966   0.204036  53.099200  -0.006355  -0.000861  35.364100  -0.009193  -0.005648   2.111400   7.997430   1.982520   1.182700   0.107206   3.091570  -3.778880  -2.910580   0.698619   0.000000   0.000000   0.000000  -0.014854   5.111180  -4.541030   0.501361   2.820650  -5.757110  -2.007710  -2.498880  -5.388380  -0.000000   0.000000  -0.000000
  1.553680  89.596800  -0.669223  -1.767010  -5.518060  -0.434365   1.223660   3.697750  -1.214730   2.533690   7.367830  -2.516340  -0.164195  -0.171677  -0.009233  -0.268954  -0.351946   8.465310  -8.130020   3.521850   1.340020 -68.131000   7.277680  -6.600160  -2.697420  -2.816490 -12.804500   4.474650   2.211740   6.015270  41.718000  31.424300 -60.383300 -26.574200   0.002202   0.001108  -8.287110  -0.001375   0.013287 -31.776100   3.450730  -5.551550 -26.134200   0.003957   0.003597 -18.294000   0.003446   0.002565 -28.303300  -0.011464   0.021272 -34.281600   0.001733   0.006885 -22.831600   0.002938   0.005095 -28.073500  -2.637090   4.930430 -33.306400  -0.001032   0.007398 -22.187700  -0.001000   0.005142 -29.015500  -2.807290   5.046050 -43.708900  -0.001039   0.000998 -29.110100   0.003143  -0.010381   6.162380   0.215059   8.059510  75.489700   4.334370   3.598090  -1.362620 -10.029400  11.682500 -12.632600  -6.973520   3.177280 -39.541400  36.113600  68.907000  32.771700   0.009660  -0.006138  11.385900  -0.000579   0.000641  32.108500   5.744340   9.062560  26.643400   0.000130  -0.001300  18.650400  -0.003677  -0.002330  28.306200   3.576810   6.608310  36.257800  -0.000867  -0.000923  24.147700  -0.000388   0.003398  28.580000   2.047530   3.752490  38.093300  -0.002789  -0.002183  25.370200  -0.011991   0.000713  35.383200   0.151963   0.209438  53.075200  -0.006341  -0.000852  35.348100  -0.009186  -0.005640   2.111970   8.004170   1.979120   1.182540   0.121879   3.099250  -3.779500  -2.929910   0.694377  -0.000000   0.000000  -0.000000  -0.014480   5.118040  -4.541370   0.498555   2.820470  -5.757120  -2.008420  -2.507950  -5.388190  -0.000000   0.000000   0.000000
  1.553830  89.596800  -0.656574  -1.766570  -5.520960  -0.429174   1.219470   3.700720  -1.208990   2.524950   7.373930  -2.504640  -0.164237  -0.171720  -0.009238  -0.269265  -0.351238   8.444140  -8.139660   3.505420   1.329610 -68.198400   7.312160  -6.563850  -2.741300  -2.856330 -12.835400   4.448710   2.229810   5.971460  41.714400  31.408100 -60.375000 -26.559800   0.002202   0.001123  -8.282060  -0.001373   0.013287 -31.769900   3.459390  -5.566580 -26.130600   0.003962   0.003605 -18.291500   0.003449   0.002570 -28.303400  -0.011911   0.022098 -34.278300   0.001731   0.006883 -22.829400   0.002937   0.005116 -28.073000  -2.640470   4.936730 -33.305500  -0.001025   0.007410 -22.185800  -0.000992   0.005145 -29.021400  -2.817380   5.062170 -43.718500  -0.001040   0.001005 -29.116500   0.003141  -0.010389   6.165420   0.192939   8.066000  75.475600   4.314510   3.558070  -1.353900 -10.005000  11.686900 -12.643300  -6.971710   3.190040 -39.555100  36.122300  68.923400  32.769000   0.009675  -0.006156  11.383700  -0.000570   0.000649  32.106200   5.748560   9.070000  26.642000   0.000104  -0.001285  18.651800  -0.003683  -0.002315  28.304600   3.583660   6.621160  36.257900  -0.000860  -0.000910  24.147800  -0.000388   0.003417  28.578600   2.057890   3.771760  38.084400  -0.002787  -0.002167  25.364300  -0.011988   0.000728  35.374900   0.151960   0.211608  53.062900  -0.006326  -0.000838  35.339800  -0.009175  -0.005630   2.116160   8.004280   1.972510   1.180690   0.153079   3.106840  -3.780660  -2.956020   0.686972   0.000000   0.000000   0.000000  -0.012412   5.134190  -4.539650   0.494868   2.815190  -5.762580  -2.008890  -2.513700  -5.389550  -0.000000   0.000000   0.000000
  1.553990  89.596800  -0.643322  -1.765900  -5.527990  -0.418836   1.215010   3.707260  -1.203140   2.515810   7.387250  -2.492790  -0.164532  -0.172023  -0.009243  -0.270062  -0.350671   8.411430  -8.151190   3.488770   1.316750 -68.265500   7.349810  -6.528930  -2.785520  -2.891000 -12.886800   4.427890   2.247120   5.932330  41.709200  31.386800 -60.353500 -26.553100   0.002204   0.001148  -8.280470  -0.001373   0.013284 -31.759500   3.461280  -5.570320 -26.122800   0.003971   0.003615 -18.286000   0.003453   0.002577 -28.303400  -0.015046   0.027874 -34.273200   0.001728   0.006880 -22.826000   0.002935   0.005146 -28.071400  -2.649660   4.954050 -33.304500  -0.001015   0.007425 -22.180800  -0.000982   0.005152 -29.025800  -2.835670   5.094590 -43.728100  -0.001041   0.001015 -29.122900   0.003139  -0.010400   6.168470   0.171061   8.077120  75.460700   4.289370   3.511880  -1.354960  -9.960600  11.700000 -12.659800  -6.971400   3.199710 -39.559000  36.131800  68.941700  32.768600   0.009699  -0.006174  11.382500  -0.000561   0.000660  32.105700   5.749730   9.071880  26.641800   0.000071  -0.001265  18.654200  -0.003693  -0.002293  28.303400   3.588400   6.629850  36.258600  -0.000849  -0.000892  24.148300  -0.000388   0.003444  28.577700   2.064470   3.783730  38.082900  -0.002785  -0.002147  25.363200  -0.011984   0.000749  35.371500   0.151955   0.212263  53.057800  -0.006307  -0.000821  35.336400  -0.009160  -0.005617   2.122050   8.004400   1.965170   1.178450   0.175104   3.114270  -3.781680  -2.973040   0.677680   0.000000   0.000000  -0.000000  -0.009122   5.155620  -4.535400   0.490997   2.807010  -5.773880  -2.009340  -2.519160  -5.392700  -0.000000   0.000000   0.000000
